<svg id="icon-github" viewBox="0 0 32.579 31.774" width="100%" height="100%">
  <path fill-rule="evenodd" clip-rule="evenodd" fill="#181616" d="M16.289 0C7.294 0 0 7.293 0 16.29c0 7.197 4.667 13.303 11.141 15.457.814.148 1.112-.354 1.112-.785 0-.387-.014-1.412-.022-2.771-4.531.984-5.487-2.184-5.487-2.184-.741-1.881-1.809-2.383-1.809-2.383-1.479-1.01.112-.99.112-.99 1.635.115 2.495 1.68 2.495 1.68 1.453 2.488 3.812 1.77 4.741 1.354.148-1.053.569-1.771 1.034-2.178-3.617-.412-7.42-1.809-7.42-8.051 0-1.778.635-3.232 1.677-4.371-.167-.412-.727-2.068.16-4.311 0 0 1.368-.438 4.479 1.67a15.602 15.602 0 0 1 4.078-.548c1.384.006 2.776.187 4.078.548 3.11-2.108 4.476-1.67 4.476-1.67.889 2.243.329 3.899.162 4.311 1.043 1.139 1.674 2.593 1.674 4.371 0 6.258-3.809 7.635-7.438 8.038.585.504 1.105 1.498 1.105 3.018 0 2.178-.02 3.934-.02 4.469 0 .436.293.941 1.12.783 6.468-2.158 11.13-8.26 11.13-15.455C32.579 7.293 25.286 0 16.289 0z"></path>
</svg>