<?xml version="1.1" encoding="utf-8"?>
<svg id="icon-slack" viewBox="355.051 151.733 259.438 259.438" width="100%" height="100%">
    <g fill="#2D333A">
        <path d="M507.684 292.575l-34.61 11.593-11.199-33.433 34.611-11.593z"></path>
        <path d="M507.684 292.575l-34.61 11.593-11.199-33.433 34.611-11.593z"></path>
        <path d="M603.615 245.778c-26.756-89.185-65.334-109.926-154.519-83.17-89.186 26.755-109.926 65.333-83.171 154.519 26.756 89.186 65.334 109.926 154.519 83.17 89.186-26.756 109.926-65.334 83.171-154.519zm-45.008 57.867l-16.8 5.6 5.808 17.423c2.281 7.052-1.452 14.726-8.504 17.007-1.452.415-3.111.83-4.563.622-5.393-.207-10.577-3.733-12.444-9.126l-5.808-17.422-34.637 11.615 5.808 17.422c2.281 7.052-1.452 14.726-8.504 17.008-1.452.414-3.111.829-4.562.622-5.393-.208-10.578-3.733-12.445-9.126l-5.807-17.423-16.801 5.601c-1.451.415-3.11.829-4.562.622-5.393-.207-10.578-3.733-12.444-9.126-2.281-7.052 1.452-14.726 8.504-17.007l16.8-5.601-11.2-33.393-16.8 5.6c-1.452.415-3.111.83-4.563.623-5.393-.208-10.577-3.734-12.444-9.126-2.281-7.052 1.452-14.726 8.504-17.007l16.8-5.6-5.808-17.422c-2.281-7.052 1.452-14.726 8.504-17.007 7.052-2.282 14.727 1.452 17.008 8.503l5.808 17.422 34.637-11.615-5.808-17.422c-2.281-7.052 1.452-14.726 8.504-17.007 7.052-2.282 14.726 1.452 17.008 8.503l5.807 17.422 16.801-5.6c7.052-2.281 14.726 1.452 17.007 8.504s-1.452 14.726-8.504 17.007l-16.8 5.6 11.2 33.393 16.8-5.6c7.052-2.281 14.727 1.452 17.008 8.503 2.278 7.052-1.456 14.726-8.508 17.008z"></path>
    </g>
</svg>